<?xml version="1.0" encoding="UTF-8" standalone="no"?>
<!-- Created with Inkscape (http://www.inkscape.org/) -->

<svg
   width="175.03117mm"
   height="66.729271mm"
   viewBox="0 0 175.03117 66.729271"
   version="1.1"
   id="svg5"
   xml:space="preserve"
   xmlns="http://www.w3.org/2000/svg"
   xmlns:svg="http://www.w3.org/2000/svg"><defs
     id="defs2" /><g
     id="layer1"
     transform="translate(-13.122713,-119.96839)"><g
       id="g121"
       transform="matrix(0.17509083,0,0,0.17509083,12.052699,105.13311)"><path
         id="path117"
         d="m 646.63737,84.72904 c -21.93219,0 -42.18351,4.038197 -60.75766,12.118477 -18.57415,8.080283 -34.15764,18.890013 -46.75029,32.427113 -1.11627,1.20702 -2.18092,2.45222 -3.25245,3.69221 l 10.0702,-43.359124 H 484.8737 L 450.40127,238.04283 c -3.56792,15.53094 -9.49798,26.97031 -17.78813,34.31601 -8.18522,7.34572 -18.94053,11.01761 -32.26774,11.01761 -13.74697,0 -23.61225,-2.51854 -29.59376,-7.5556 -5.87657,-5.142 -8.81585,-12.6432 -8.81585,-22.50744 0,-2.30865 0.21184,-5.19645 0.6316,-8.65942 0.52469,-3.56792 1.15434,-6.81907 1.8889,-9.75736 L 398.1407,89.607716 H 338.84693 267.54094 L 187.89131,207.19178 162.23473,89.607716 H 92.817634 L 38.668167,323.98781 h 57.298618 l 36.833565,-159.76852 20.7779,104.67755 h 41.71224 l 64.37904,-98.22283 -35.41688,153.3138 h 60.44481 L 300.0861,257.3775 c -0.0692,1.42736 -0.16823,2.85912 -0.16823,4.27659 0,22.45689 7.92194,39.24816 23.76768,50.37167 11.35634,7.89678 26.63559,12.91225 45.69959,15.14957 -209.19345,8.46489 -363.2739449,35.46052 -363.2739449,67.82333 0,39.11997 223.7899249,70.84263 499.8296549,70.84263 276.03972,0 499.82965,-31.72266 499.82965,-70.84263 0,-33.01457 -160.11028,-60.51648 -375.77906,-68.37229 12.09616,-1.95313 23.33179,-5.16448 33.64604,-9.72194 18.04945,-8.08028 33.8448,-19.67411 47.38189,-34.78528 2.068,-2.31335 4.02233,-4.71801 5.92643,-7.16307 l -11.32751,49.03173 h 55.72257 l 37.46221,-162.28607 68.78845,162.28607 h 51.47254 L 973.21057,89.607716 H 917.48801 L 886.32115,225.29276 827.45238,89.607716 H 759.76481 L 745.83417,149.90496 C 741.74562,133.96945 733.81613,120.49831 721.88055,109.5976 703.83109,93.017285 678.74862,84.72904 646.63737,84.72904 Z m -7.5556,43.28534 c 14.90129,0 26.34067,4.7767 34.31601,14.32613 8.08029,9.44448 12.12143,22.56092 12.12143,39.35111 0,16.05562 -2.04632,30.27392 -6.13892,42.65668 -3.98768,12.27783 -9.55143,23.08757 -16.68726,32.42711 -6.92596,9.23461 -15.05679,16.36951 -24.39633,21.40656 -9.33955,4.93212 -19.04743,7.39918 -29.12154,7.39918 -14.58648,0 -26.02585,-4.56487 -34.31601,-13.69453 -8.18522,-9.12967 -12.27785,-22.66685 -12.27785,-40.61136 0,-16.16056 2.20373,-30.69368 6.61115,-43.60114 4.40743,-13.0124 10.23157,-23.87362 17.47233,-32.58353 7.45065,-9.12968 15.58443,-15.89826 24.39928,-20.30569 8.9198,-4.51236 18.25841,-6.77052 28.01771,-6.77052 z M 502.61461,265.00394 c 4.17978,15.54556 11.97411,28.60959 23.44893,39.15041 11.04279,10.0215 24.68547,16.9496 40.85338,20.87531 -20.21436,-0.35269 -40.0891,-0.87067 -60.97607,-0.87067 -25.92777,0 -50.82812,0.54363 -75.69179,1.08317 17.33503,-3.46118 31.63054,-9.62939 42.81901,-18.5673 12.2568,-9.8618 22.06549,-23.81803 29.54654,-41.67092 z m -14.76884,107.78243 c 63.03994,0 114.13091,10.57423 114.13091,23.61421 0,13.03999 -51.09597,23.61126 -114.13091,23.61126 -63.02694,0 -114.12796,-10.57127 -114.12796,-23.61126 0,-13.03998 51.10402,-23.61421 114.12796,-23.61421 z" /></g></g></svg>
