<?xml version="1.0" encoding="UTF-8" standalone="no"?>
<!-- Created with Inkscape (http://www.inkscape.org/) -->

<svg
   width="183.96988mm"
   height="122.197mm"
   viewBox="0 0 197.97 131.4962"
   version="1.1"
   id="svg5"
   xml:space="preserve"
   sodipodi:docname="muonCassetteSpaced.svg"
   inkscape:export-filename="muonCassette.svg"
   inkscape:export-xdpi="96"
   inkscape:export-ydpi="96"
   inkscape:version="1.2.2 (b0a84865, 2022-12-01)"
   xmlns:inkscape="http://www.inkscape.org/namespaces/inkscape"
   xmlns:sodipodi="http://sodipodi.sourceforge.net/DTD/sodipodi-0.dtd"
   xmlns="http://www.w3.org/2000/svg"
   xmlns:svg="http://www.w3.org/2000/svg"><sodipodi:namedview
     id="namedview14"
     pagecolor="#ffffff"
     bordercolor="#000000"
     borderopacity="0.25"
     inkscape:showpageshadow="2"
     inkscape:pageopacity="0.0"
     inkscape:pagecheckerboard="0"
     inkscape:deskcolor="#d1d1d1"
     inkscape:document-units="mm"
     showgrid="false"
     inkscape:zoom="0.88105841"
     inkscape:cx="142.44232"
     inkscape:cy="181.59976"
     inkscape:window-width="1496"
     inkscape:window-height="900"
     inkscape:window-x="7"
     inkscape:window-y="38"
     inkscape:window-maximized="0"
     inkscape:current-layer="text289" /><defs
     id="defs2" /><g
     id="layer1"
     transform="translate(-8.9961248,-82.105602)"><g
       aria-label="MUON"
       id="text289"
       style="font-style:italic;font-weight:bold;font-size:56.4444px;-inkscape-font-specification:'sans-serif, Bold Italic';letter-spacing:-10.5833px;stroke-width:0.264583"><path
         id="path559"
         d="m 143.16606,96.259532 c -3.84012,0 -7.36129,-0.14743 -10.61346,1.267353 -3.25215,1.414785 -5.9807,3.306955 -8.18554,5.677175 -0.007,0.007 -0.013,0.0145 -0.0196,0.0217 l 1.61799,-6.966502 h -10.69341 l -6.0358,25.989622 c -0.62472,2.71933 -1.66301,4.72174 -3.11454,6.00791 -1.43316,1.28617 -3.31631,1.92959 -5.64978,1.92959 -2.406972,0 -4.134294,-0.44097 -5.181601,-1.32291 -1.028932,-0.90032 -1.543575,-2.21422 -1.543575,-3.94136 0,-0.40422 0.03709,-0.90933 0.110588,-1.51567 0.09187,-0.62471 0.202112,-1.19448 0.330729,-1.70894 L 100.08585,96.259262 H 90.108683 77.623657 L 63.678255,116.84663 59.185506,96.259262 H 47.031209 l -9.480558,41.037798 h 0.12144 c -0.578476,0.1353 -1.174345,0.30201 -1.914095,0.53795 -1.678778,0.53428 -3.254365,1.03938 -4.937684,1.76269 -1.685762,0.72716 -2.123053,1.62978 -2.31562,2.49028 -4.478477,18.77638 -8.743626,38.04705 -12.408028,54.206 -0.548721,2.01333 1.17179,3.15445 4.628141,3.14451 45.625046,0.0194 107.450115,0.0225 158.003275,-0.0186 2.84461,-0.002 5.45251,-1.33457 5.81928,-2.97657 l 12.26127,-54.49073 c 0.14944,-0.68641 -0.1028,-1.3172 -0.67593,-1.81798 -0.76489,-1.02734 -2.72435,-1.61424 -4.18992,-2.26239 -0.52997,-0.23603 -1.10653,-0.41959 -1.67484,-0.57516 h 0.21704 l 9.48108,-41.037798 h -9.75651 l -5.45703,23.757198 -10.3079,-23.757198 h -11.85096 l -2.25051,9.741518 c -0.76711,-2.43911 -2.09285,-4.51973 -3.97805,-6.24147 -4.097,-3.57215 -7.57666,-3.499778 -13.19904,-3.499778 z m -1.29826,6.724388 c 2.60907,0 4.61201,0.83584 6.00842,2.50785 1.41477,1.65364 2.12235,3.95021 2.12235,6.89002 0,2.81119 -0.35829,5.3012 -1.07487,7.46931 -0.69821,2.14973 -1.67237,4.0419 -2.92179,5.67717 -1.21267,1.6169 -2.63631,2.86667 -4.27157,3.74861 -1.63527,0.86357 -3.33503,1.29501 -5.09892,1.29501 -2.55394,0 -4.55689,-0.79926 -6.00841,-2.39779 -1.43316,-1.5985 -2.14974,-3.96876 -2.14974,-7.11067 0,-2.82957 0.38585,-5.37418 1.15755,-7.63416 0.7717,-2.27835 1.79145,-4.18005 3.05924,-5.70508 1.30455,-1.59852 2.72869,-2.78364 4.27209,-3.55533 1.56177,-0.79008 3.19688,-1.18494 4.90565,-1.18494 z m 27.56111,5.89783 11.87731,28.02257 -18.34979,0.0145 z m -115.397094,0.4408 3.63802,18.32807 h 7.303431 l 11.272697,-17.19791 -6.130892,26.54049 -22.466329,0.0176 z m 28.887642,18.05522 c 0.218696,3.43638 1.594882,6.04472 4.12998,7.82433 1.049013,0.72945 2.286772,1.32092 3.711402,1.77457 l -10.060368,0.008 z m 35.219552,0.18345 c 0.76484,2.46404 2.07778,4.55224 3.94033,6.26319 1.50219,1.36325 3.27571,2.4038 5.31957,3.1228 l -19.46651,0.0155 c 2.05541,-0.63361 3.81384,-1.53224 5.27255,-2.69751 2.01252,-1.61929 3.65691,-3.85422 4.93406,-6.70399 z m 36.79259,1.86345 -1.73323,7.50187 -9.37049,0.008 c 0.80663,-0.25332 1.58693,-0.54498 2.3394,-0.87746 3.16028,-1.41478 5.92591,-3.44528 8.29613,-6.0911 0.15911,-0.17799 0.31462,-0.35862 0.46819,-0.54106 z m 15.52463,11.31043 c -2.16111,4.59409 -3.47454,7.36689 -5.85287,12.41061 -0.57078,1.21752 -2.73414,2.10289 -4.82089,1.9451 H 66.701326 c -2.165535,0.16096 -3.943501,-0.6444 -3.97185,-1.8619 -0.109244,-5.0367 -0.169433,-7.81268 -0.271818,-12.40338 z m -135.079607,2.70887 c 1.59654,-0.004 2.72523,0.744 2.518193,1.66812 -0.207088,0.92434 -1.676704,1.6725 -3.270085,1.67432 -1.598769,0.001 -2.727879,-0.74633 -2.524393,-1.66864 0.210277,-0.92457 1.670762,-1.6738 3.276285,-1.6738 z m 154.850497,0 c 1.60437,-0.002 2.72841,0.74581 2.52336,1.66812 -0.21023,0.92434 -1.67334,1.6725 -3.27732,1.67432 -1.59729,0 -2.72057,-0.7463 -2.51044,-1.67019 0.20364,-0.92298 1.66672,-1.67225 3.2644,-1.67225 z M 39.545878,161.17829 H 176.91527 c 1.41986,-0.001 2.49793,0.5498 2.32751,1.29915 l -6.20583,27.28619 c -0.17022,0.74844 -1.42805,1.41257 -2.8484,1.41438 H 32.81709 c -1.41994,0 -2.496177,-0.54812 -2.325956,-1.29656 l 6.206339,-27.28826 h -5.17e-4 c 0.17053,-0.7498 1.428571,-1.41309 2.848922,-1.4149 z m 82.642502,4.6514 -30.004371,0.0248 c 2.131145,2.77983 2.99726,5.99928 2.22467,9.43767 -0.687732,3.03768 -2.568698,5.90626 -5.335591,8.45426 l 28.172952,-0.0222 c -1.62234,-2.54483 -2.21309,-5.41009 -1.53169,-8.44754 0.77534,-3.43839 3.08593,-6.66217 6.47403,-9.44697 z m 28.62512,0.13126 c -8.89324,0.007 -17.03606,4.1737 -18.19113,9.30072 -1.15508,5.13223 5.11613,9.28365 14.00431,9.27799 8.89523,-0.009 17.0379,-4.17419 18.19372,-9.30279 1.15386,-5.12861 -5.12084,-9.28091 -14.0069,-9.27592 z m -87.321797,0.0713 c -8.892833,0.005 -17.035044,4.17134 -18.190104,9.30176 -1.154275,5.13042 5.114666,9.28213 14.009481,9.27488 8.8899,-0.006 17.034142,-4.17447 18.186487,-9.30331 1.154596,-5.12838 -5.119784,-9.28012 -14.005864,-9.27333 z m 88.954777,2.66082 c 1.48944,0.17228 2.83124,0.51625 3.9641,0.99529 l -1.23455,0.63303 2.77657,1.83813 1.23559,-0.63303 c 0.67622,0.71855 1.08554,1.53774 1.19217,2.41794 h -1.54151 l -0.59169,2.60087 1.54616,-0.002 c -0.50343,0.87997 -1.28214,1.69783 -2.27893,2.41639 l -0.94827,-0.62787 -3.60443,1.84174 0.95498,0.62787 c -1.35552,0.48447 -2.85401,0.82833 -4.42092,1.00356 l 0.20258,-0.88935 -4.50671,0.002 -0.20257,0.89142 c -1.48272,-0.17251 -2.82429,-0.51638 -3.96048,-0.99632 l 1.23093,-0.63046 -2.76934,-1.83606 -1.23661,0.63149 c -0.66995,-0.71856 -1.08086,-1.53694 -1.18598,-2.41691 h 1.5472 l 0.57929,-2.60191 h -1.54564 c 0.50003,-0.87884 1.276,-1.69809 2.27634,-2.41846 l 0.95085,0.63046 3.59875,-1.8433 -0.94775,-0.6289 c 1.35491,-0.48176 2.85307,-0.82747 4.41472,-1.00201 l -0.20257,0.88987 4.51238,-0.004 z m -87.3156,0.0692 c 1.485755,0.17297 2.827758,0.51551 3.964099,0.99478 l -1.23455,0.63407 2.76934,1.83813 1.23765,-0.63407 c 0.671512,0.71855 1.087147,1.53567 1.189075,2.41587 l -1.547709,0.002 -0.583944,2.59829 H 72.471 c -0.503055,0.88178 -1.280322,1.70145 -2.277897,2.42001 l -0.956014,-0.63252 -3.59823,1.84174 0.95343,0.63046 c -1.353339,0.48175 -2.84874,0.82729 -4.413684,1.00252 l 0.198954,-0.88987 -4.508768,0.002 -0.196888,0.89039 c -1.488398,-0.17342 -2.830521,-0.51522 -3.972367,-0.99788 l 1.237651,-0.63148 -2.766757,-1.83503 -1.240234,0.63148 c -0.670335,-0.71855 -1.083491,-1.53567 -1.188558,-2.41587 l 1.547193,-0.002 0.58446,-2.60139 h -1.546676 c 0.501273,-0.87567 1.28092,-1.69279 2.276347,-2.41226 l 0.95343,0.62942 3.600814,-1.83968 -0.949813,-0.63148 c 1.353546,-0.48267 2.852047,-0.82821 4.416785,-1.00253 l -0.198954,0.88884 4.508252,-0.004 z m 113.75946,25.10287 c 1.59886,0 2.72313,0.74781 2.51975,1.66966 -0.20455,0.92525 -1.67497,1.67251 -3.27267,1.67432 -1.6028,0.002 -2.72685,-0.74458 -2.52285,-1.66915 0.21003,-0.92344 1.67519,-1.67416 3.27577,-1.67483 z m -154.856177,0.001 c 1.602952,-0.002 2.7324,0.74497 2.522327,1.66863 -0.210433,0.92525 -1.676679,1.67273 -3.276286,1.67432 -1.599245,0 -2.727541,-0.74639 -2.517676,-1.66915 0.206883,-0.92344 1.670016,-1.67199 3.271635,-1.6738 z"
         sodipodi:nodetypes="ssccccccscscccccccccccccccccccccccccccccsscscccscscccsccccccccccccccccsccccsscccccccccccccccscccccccccccccsccccccccccscccccccccccccccccccccccccccccccccccccccccccccccccccccccccccccccccccccccccccccccccccsccc" /></g></g></svg>
